<svg aria-hidden="true" style="width:0;height:0;position:absolute;overflow:hidden" xmlns="http://www.w3.org/2000/svg"><defs><symbol id="icon-pointer" viewBox="0 0 32 32"><path stroke-linejoin="round" stroke-linecap="round" stroke-width="5.333" d="M10.667 5.333 23.867 16l-13.2 10.667"/></symbol><symbol id="icon-btn-more" viewBox="0 0 22 32"><path d="M2.864.019A3.202 3.202 0 0 0 .718 1.178l-.005.006A3.181 3.181 0 0 0-.002 3.2c0 1.001.46 1.895 1.18 2.482l.006.005 12.768 10.314L1.187 26.315a3.196 3.196 0 0 0-.469 4.505l-.005-.006a3.196 3.196 0 0 0 4.505.469l-.006.005 15.83-12.8c.726-.591 1.186-1.485 1.186-2.486s-.46-1.895-1.18-2.482l-.006-.005L5.212.715A3.178 3.178 0 0 0 2.849.022l.014-.001z"/></symbol><symbol id="icon-arrow-right" viewBox="0 0 82 32"><path fill="#fcfcfc" style="fill:var(--color1,#fcfcfc)" d="M81.414 17.414a2 2 0 0 0 0-2.828L68.686 1.858a2 2 0 1 0-2.828 2.828L77.172 16 65.858 27.314a2 2 0 1 0 2.828 2.828l12.728-12.728zM0 18h80v-4H0v4z"/></symbol><symbol id="icon-menu" viewBox="0 0 32 32"><path fill="none" stroke="#fff" style="stroke:var(--color1,#fff)" stroke-linecap="round" stroke-width="2" d="M6 10h20M6 16h20M6 22h20"/></symbol></defs></svg>