<svg aria-hidden="true" style="position: absolute; width: 0; height: 0; overflow: hidden;" version="1.1" xmlns="http://www.w3.org/2000/svg" xmlns:xlink="http://www.w3.org/1999/xlink">
<defs>
<!-- Оптимізовані SVG подавати сюди -->
  <symbol id="icon-pointer" viewBox="0 0 32 32">
    <path d="M24.889 14.751l-14.24-14.24c-0.329-0.33-0.769-0.511-1.238-0.511s-0.908 0.182-1.238 0.511l-1.049 1.048c-0.682 0.683-0.682 1.794 0 2.476l11.958 11.958-11.971 11.971c-0.329 0.33-0.511 0.769-0.511 1.238s0.182 0.908 0.511 1.238l1.049 1.048c0.33 0.33 0.769 0.511 1.238 0.511s0.908-0.182 1.238-0.511l14.254-14.253c0.33-0.331 0.511-0.772 0.51-1.242 0.001-0.471-0.18-0.912-0.51-1.243z"></path>
  </symbol>
  <symbol id="icon-btn-more" viewBox="0 0 22 32">
    <path d="M2.864 0.019c-0.872 0.094-1.628 0.525-2.146 1.159l-0.005 0.006c-0.445 0.545-0.715 1.249-0.715 2.016 0 1.001 0.46 1.895 1.18 2.482l0.006 0.005 12.768 10.314-12.765 10.314c-0.726 0.591-1.186 1.485-1.186 2.487 0 0.765 0.269 1.468 0.717 2.018l-0.005-0.006c0.591 0.726 1.485 1.186 2.487 1.186 0.765 0 1.468-0.269 2.018-0.717l-0.006 0.005 15.83-12.8c0.726-0.591 1.186-1.485 1.186-2.486s-0.46-1.895-1.18-2.482l-0.006-0.005-15.83-12.8c-0.545-0.444-1.247-0.712-2.013-0.712-0.118 0-0.235 0.006-0.35 0.019l0.014-0.001z"></path>
  </symbol>
  <symbol id="icon-arrow-right" viewBox="0 0 82 32">
    <path fill="#fcfcfc" style="fill: var(--color1, #fcfcfc)" d="M81.414 17.414c0.781-0.781 0.781-2.047 0-2.828l-12.728-12.728c-0.781-0.781-2.047-0.781-2.828 0s-0.781 2.047 0 2.828l11.314 11.314-11.314 11.314c-0.781 0.781-0.781 2.047 0 2.828s2.047 0.781 2.828 0l12.728-12.728zM0 18h80v-4h-80v4z"></path>
  </symbol>
  <symbol id="icon-menu" viewBox="0 0 32 32">
    <path fill="none" stroke="#fff" style="stroke: var(--color1, #fff)" stroke-linejoin="miter" stroke-linecap="round" stroke-miterlimit="4" stroke-width="2" d="M6 10h20M6 16h20M6 22h20"></path>
  </symbol>
</defs>
</svg>